<svg width="210" height="40" viewBox="0 0 210 40" fill="none" xmlns="http://www.w3.org/2000/svg">
<path d="M9.9806 24.9202V14.4775C9.9806 13.5061 10.5877 11.3206 12.9352 10.8752H0.95459C3.30215 11.3204 3.90938 13.5061 3.90938 14.4775V35.6057C3.90938 36.5772 3.30229 38.7627 0.95459 39.208H12.9352C10.5877 38.7628 9.9806 36.5772 9.9806 35.6057V25.1631H21.0709V35.6057C21.0709 36.5772 20.4638 38.7627 18.1162 39.208H30.0969C27.7493 38.7628 27.1422 36.5772 27.1422 35.6057V14.4775C27.1422 13.5061 27.7493 11.3206 30.0969 10.8752H18.1162C20.4638 11.3204 21.0709 13.5061 21.0709 14.4775V24.9202H9.9806Z" fill="white"/>
<path d="M64.9058 39.2081H75.9151C73.9318 38.8437 73.4056 36.9819 73.4056 36.1319V21.9251C74.1342 21.1155 75.308 19.9823 76.6841 19.9823C79.8411 19.9823 79.5983 24.5155 79.5983 26.2154V39.2081H88.0982C86.1149 38.8437 85.5887 36.9819 85.5887 36.1319V26.8226C85.5887 25.1631 85.2244 23.8274 84.6578 22.7346C85.2649 22.087 86.8435 19.9823 88.8672 19.9823C92.0243 19.9823 91.7815 24.5155 91.7815 26.2154V39.2081H100.281C98.298 38.8437 97.7719 36.9819 97.7719 36.1319V26.8226C97.7719 21.3585 93.8862 19.1323 90.6482 19.1323C87.2888 19.1323 85.3055 21.5608 84.5769 22.5727C83.2008 20.1846 80.6912 19.1323 78.4651 19.1323C76.0366 19.1323 74.3771 20.5084 73.4056 21.6012V19.1323L64.9867 23.0584C67.0914 23.0584 67.4152 24.6774 67.4152 25.8917V36.1321C67.4152 36.982 66.8891 38.8438 64.9058 39.2082V39.2081Z" fill="white"/>
<path d="M102.507 39.2079H113.517C111.533 38.8435 111.007 36.9817 111.007 36.1317V19.1322L102.588 23.0583C104.693 23.0583 105.017 24.6772 105.017 25.8916V36.1319C105.017 36.9818 104.491 38.8437 102.507 39.208V39.2079ZM103.884 13.3442C103.884 15.2466 105.503 16.8251 107.364 16.8251C109.226 16.8251 110.845 15.2062 110.845 13.3442C110.845 11.4418 109.226 9.86328 107.364 9.86328C105.503 9.86328 103.884 11.4418 103.884 13.3442Z" fill="white"/>
<path d="M124.283 19.7798H112.91C114.771 20.1442 116.188 21.4798 116.836 22.8559L124.243 39.208H124.486L131.447 22.8559C131.933 21.7227 133.39 20.1442 135.292 19.7798H130.031C131.933 20.1442 131.65 21.7631 131.204 22.8559L127.238 32.2058L123.109 22.8559C122.543 21.6012 122.502 20.1036 124.283 19.7798Z" fill="white"/>
<path d="M140.554 27.5915C140.554 22.8559 142.133 19.3751 144.156 19.3751C146.504 19.3751 147.152 23.0989 147.152 25.4464C147.152 31.3559 142.78 31.3153 141.08 31.3153C140.757 30.182 140.554 28.8868 140.554 27.5915H140.554ZM134.483 29.4534C134.483 35.2413 138.652 39.8555 143.792 39.8555C147.556 39.8555 150.349 37.265 152.171 33.8247C153.021 32.2057 153.385 31.1129 154.073 28.6438C154.761 26.1749 155.247 23.8677 156.461 22.8963C156.947 22.5321 157.27 22.8963 157.27 23.5034V36.1317C157.27 36.9816 156.744 38.8435 154.761 39.2078H165.77C163.787 38.8435 163.261 36.9816 163.261 36.1317V21.8844C163.989 21.0345 165.973 19.3749 168.158 19.3749C169.413 19.3749 169.777 20.0226 169.777 20.4272C169.777 21.601 167.754 21.9654 167.754 24.0701C167.754 25.5677 168.927 26.7414 170.425 26.7414C171.599 26.7414 172.611 25.9724 172.934 24.8796C173.946 22.0463 171.842 19.1321 168.158 19.1321C166.054 19.1321 163.989 20.7106 163.261 21.601V19.1321L157.23 21.9248C154.842 23.0176 154.478 26.0532 153.749 28.6438C153.061 31.1127 152.292 33.4199 150.794 34.796C149.742 35.7269 148.164 36.1317 146.504 36.1317C143.954 36.1317 142.092 34.2293 141.161 31.5581C141.93 31.639 143.914 32.1652 145.937 32.1652C150.187 32.1652 152.454 29.1295 152.454 26.0939C152.454 22.4107 149.337 19.1322 144.157 19.1322C138.207 19.1322 134.483 23.7464 134.483 29.4534Z" fill="white"/>
<path d="M181.596 19.1323C178.196 19.1323 174.756 20.549 174.756 24.5964C174.756 30.344 184.753 32.7725 184.753 37.2653C184.753 38.7629 183.701 39.6128 182.365 39.6128C178.439 39.6128 175.97 36.7392 173.987 31.5987L174.796 39.2486C174.918 38.4796 175.322 38.1558 175.889 38.1558C177.265 38.1558 179.087 39.8557 182.365 39.8557C185.603 39.8557 189.691 38.3987 189.691 34.351C189.691 29.494 179.37 25.4465 179.37 21.4799C179.37 20.2251 179.937 19.3752 181.637 19.3752C184.875 19.3752 186.858 21.6823 188.518 25.9323L187.83 19.6181C187.749 20.2657 187.425 20.5086 186.939 20.5086C185.806 20.5086 184.47 19.1325 181.596 19.1325L181.596 19.1323Z" fill="white"/>
<path d="M204.182 25.4464C204.182 31.3558 199.81 31.3153 198.11 31.3153C197.787 30.1819 197.584 28.8868 197.584 27.5915C197.584 22.8558 199.163 19.375 201.186 19.375C203.534 19.375 204.182 23.0988 204.182 25.4464H204.182ZM191.513 29.4535C191.513 35.2414 195.682 39.8556 200.822 39.8556C205.315 39.8556 209.039 36.4152 209.969 31.7201L209.848 31.5582C209.12 33.7844 206.731 36.1318 203.534 36.1318C200.984 36.1318 199.122 34.2294 198.191 31.5582C198.96 31.6391 200.943 32.1653 202.967 32.1653C207.217 32.1653 209.484 29.1296 209.484 26.094C209.484 22.4108 206.367 19.1323 201.186 19.1323C195.237 19.1323 191.513 23.7465 191.513 29.4535H191.513Z" fill="white"/>
<path fill-rule="evenodd" clip-rule="evenodd" d="M60.357 18.2894C59.7624 16.7696 58.3582 15.0402 57.6111 14.167C56.6891 13.0895 54.9893 11.8437 53.3765 10.9921C49.8864 9.14935 45.0882 8.79488 41.0637 10.2663C37.4128 11.6011 34.6503 14.1859 33.0077 17.1164C31.2387 20.2729 30.328 24.9449 31.643 29.0201C33.7529 28.3688 35.5095 27.7953 36.1304 27.5925L36.1766 27.5773C36.8156 27.3687 37.4478 27.1602 38.0728 26.9523V24.1453C38.0728 23.7826 38.2485 23.4611 38.5193 23.2611L42.0587 20.1955L45.623 16.9681C46.0447 16.5865 46.6826 16.5949 47.0939 16.9712L50.6776 20.2162L50.6783 20.2153L52.3875 21.6961C54.2861 20.923 57.346 19.6518 60.357 18.2896V18.2894ZM57.9918 13.6235C58.2404 13.9485 58.7294 14.4076 58.9148 14.8125C59.1686 14.7987 59.7466 14.66 60.5123 14.4617V14.4619C61.1347 14.4281 63.2416 13.7452 65.3272 13.2673C67.2072 12.8716 68.9461 12.6493 69.6746 13.0184C70.5757 13.4751 69.6247 14.3441 69.3641 14.6066C67.1228 16.8646 55.1728 21.7592 51.7817 23.1234C46.8984 25.0881 41.8708 26.8714 36.5157 28.6202C34.6281 29.2366 20.6779 33.8108 19.8739 31.84C19.6831 31.3722 20.1902 30.7648 21.0713 30.1072V28.1915C20.0092 28.7682 18.9808 29.3545 17.9843 29.9518C14.8116 31.8532 6.11139 37.5813 17.5099 36.3853C26.2609 35.467 38.6123 31.4397 46.8638 28.4349C55.9732 25.1179 64.8877 21.3001 72.5497 16.814C75.6125 15.0205 84.6839 9.06898 73.323 10.2687C70.5394 10.5627 67.9765 11.0754 65.3593 11.6651L65.3057 11.6773L65.3047 11.6776L65.2481 11.6905L65.2435 11.6915L65.1862 11.7047C63.7661 12.0298 58.5377 13.2705 57.9921 13.6235H57.9918ZM27.1427 26.8393C28.2693 26.3228 29.1206 25.9383 29.2932 25.7857C29.8767 25.5099 30.2752 25.31 30.3819 25.2156L30.4061 23.6928C30.0171 23.7756 28.5765 24.4391 27.1427 25.127V26.8391V26.8393ZM34.0583 33.8434C34.7154 34.8124 36.2474 36.2479 36.942 36.784C37.2986 37.0594 37.6752 37.3279 38.0727 37.5846V32.6049C36.7553 33.0263 35.4116 33.4421 34.0583 33.8433V33.8434ZM68.4876 4.11337L69.1364 5.68619L68.4042 7.29956L69.9962 6.60837L71.5914 7.2967L70.9426 5.72402L71.6748 4.1105L70.0828 4.8017L68.4876 4.11337ZM32.9559 8.19939L32.8511 9.89744L34.0663 11.187L32.3364 11.0486L31.0499 12.2163L31.1545 10.5183L29.9393 9.22874L31.6693 9.36715L32.9559 8.19939ZM36.2813 2.01971C33.4558 2.45615 34.1583 6.71038 36.9252 6.25345C39.7336 5.78936 39.0193 1.59674 36.2813 2.01971ZM57.3533 0.0263478C52.5608 0.766694 53.7522 7.9826 58.4456 7.20729C63.2092 6.42023 61.9974 -0.691073 57.3533 0.0263478ZM44.0158 39.8407C45.5787 40.0851 47.1517 40.084 48.6974 39.845V28.9276C48.2113 29.108 47.7242 29.287 47.2369 29.4645C46.2202 29.8346 45.1416 30.2204 44.0158 30.6138V39.8407ZM54.6407 37.6371C59.3802 34.6855 61.8649 29.5098 61.6851 23.6168C61.3564 23.7661 61.0265 23.9146 60.6957 24.0623C58.7096 24.9484 56.6871 25.8035 54.6407 26.6295V37.6371Z" fill="url(#paint0_linear_5016_11265)"/>
<defs>
<linearGradient id="paint0_linear_5016_11265" x1="47.2703" y1="9.89887" x2="41.9225" y2="20.3869" gradientUnits="userSpaceOnUse">
<stop stop-color="#D4B67A"/>
<stop offset="1" stop-color="#E8DC90"/>
</linearGradient>
</defs>
</svg>
