<svg width="210" height="41" viewBox="0 0 210 41" fill="none" xmlns="http://www.w3.org/2000/svg">
<path d="M9.98047 25.4202V14.9775C9.98047 14.0061 10.5876 11.8206 12.9351 11.3752H0.954468C3.30203 11.8204 3.90926 14.0061 3.90926 14.9775V36.1057C3.90926 37.0772 3.30217 39.2627 0.954468 39.708H12.9351C10.5876 39.2628 9.98047 37.0772 9.98047 36.1057V25.6631H21.0708V36.1057C21.0708 37.0772 20.4637 39.2627 18.1161 39.708H30.0968C27.7492 39.2628 27.1421 37.0772 27.1421 36.1057V14.9775C27.1421 14.0061 27.7492 11.8206 30.0968 11.3752H18.1161C20.4637 11.8204 21.0708 14.0061 21.0708 14.9775V25.4202H9.98047Z" fill="#380020"/>
<path d="M64.9055 39.7081H75.9148C73.9315 39.3437 73.4053 37.4819 73.4053 36.6319V22.4251C74.1339 21.6155 75.3077 20.4823 76.6838 20.4823C79.8408 20.4823 79.598 25.0155 79.598 26.7154V39.7081H88.0979C86.1146 39.3437 85.5884 37.4819 85.5884 36.6319V27.3226C85.5884 25.6631 85.2241 24.3274 84.6575 23.2346C85.2646 22.587 86.8432 20.4823 88.8669 20.4823C92.024 20.4823 91.7812 25.0155 91.7812 26.7154V39.7081H100.281C98.2977 39.3437 97.7716 37.4819 97.7716 36.6319V27.3226C97.7716 21.8585 93.8858 19.6323 90.6479 19.6323C87.2885 19.6323 85.3052 22.0608 84.5766 23.0727C83.2005 20.6846 80.6909 19.6323 78.4648 19.6323C76.0363 19.6323 74.3768 21.0084 73.4053 22.1012V19.6323L64.9864 23.5584C67.0911 23.5584 67.4149 25.1774 67.4149 26.3917V36.6321C67.4149 37.482 66.8888 39.3438 64.9055 39.7082V39.7081Z" fill="#380020"/>
<path d="M102.507 39.7079H113.517C111.533 39.3435 111.007 37.4817 111.007 36.6317V19.6322L102.588 23.5583C104.693 23.5583 105.017 25.1772 105.017 26.3916V36.6319C105.017 37.4818 104.491 39.3437 102.507 39.708V39.7079ZM103.883 13.8442C103.883 15.7466 105.502 17.3251 107.364 17.3251C109.226 17.3251 110.845 15.7062 110.845 13.8442C110.845 11.9418 109.226 10.3633 107.364 10.3633C105.502 10.3633 103.883 11.9418 103.883 13.8442Z" fill="#380020"/>
<path d="M124.283 20.2798H112.909C114.771 20.6442 116.188 21.9798 116.835 23.3559L124.242 39.708H124.485L131.447 23.3559C131.933 22.2227 133.39 20.6442 135.292 20.2798H130.03C131.933 20.6442 131.649 22.2631 131.204 23.3559L127.238 32.7058L123.109 23.3559C122.542 22.1012 122.502 20.6036 124.283 20.2798Z" fill="#380020"/>
<path d="M140.554 28.0915C140.554 23.3559 142.133 19.8751 144.156 19.8751C146.504 19.8751 147.152 23.5989 147.152 25.9464C147.152 31.8559 142.78 31.8153 141.08 31.8153C140.757 30.682 140.554 29.3868 140.554 28.0915H140.554ZM134.483 29.9534C134.483 35.7413 138.652 40.3555 143.792 40.3555C147.556 40.3555 150.349 37.765 152.171 34.3247C153.021 32.7057 153.385 31.6129 154.073 29.1438C154.761 26.6749 155.247 24.3677 156.461 23.3963C156.947 23.0321 157.27 23.3963 157.27 24.0034V36.6317C157.27 37.4816 156.744 39.3435 154.761 39.7078H165.77C163.787 39.3435 163.261 37.4816 163.261 36.6317V22.3844C163.989 21.5345 165.973 19.8749 168.158 19.8749C169.413 19.8749 169.777 20.5226 169.777 20.9272C169.777 22.101 167.754 22.4654 167.754 24.5701C167.754 26.0677 168.927 27.2414 170.425 27.2414C171.599 27.2414 172.611 26.4724 172.934 25.3796C173.946 22.5463 171.842 19.6321 168.158 19.6321C166.054 19.6321 163.989 21.2106 163.261 22.101V19.6321L157.23 22.4248C154.842 23.5176 154.478 26.5532 153.749 29.1438C153.061 31.6127 152.292 33.9199 150.794 35.296C149.742 36.2269 148.164 36.6317 146.504 36.6317C143.954 36.6317 142.092 34.7293 141.161 32.0581C141.93 32.139 143.914 32.6652 145.937 32.6652C150.187 32.6652 152.454 29.6295 152.454 26.5939C152.454 22.9107 149.337 19.6322 144.157 19.6322C138.207 19.6322 134.483 24.2464 134.483 29.9534Z" fill="#380020"/>
<path d="M181.596 19.6323C178.196 19.6323 174.756 21.049 174.756 25.0964C174.756 30.844 184.753 33.2725 184.753 37.7653C184.753 39.2629 183.701 40.1128 182.365 40.1128C178.439 40.1128 175.97 37.2392 173.987 32.0987L174.796 39.7486C174.918 38.9796 175.322 38.6558 175.889 38.6558C177.265 38.6558 179.087 40.3557 182.365 40.3557C185.603 40.3557 189.691 38.8987 189.691 34.851C189.691 29.994 179.37 25.9465 179.37 21.9799C179.37 20.7251 179.937 19.8752 181.637 19.8752C184.875 19.8752 186.858 22.1823 188.518 26.4323L187.829 20.1181C187.748 20.7657 187.425 21.0086 186.939 21.0086C185.806 21.0086 184.47 19.6325 181.596 19.6325L181.596 19.6323Z" fill="#380020"/>
<path d="M204.181 25.9464C204.181 31.8558 199.81 31.8153 198.11 31.8153C197.786 30.6819 197.584 29.3868 197.584 28.0915C197.584 23.3558 199.163 19.875 201.186 19.875C203.534 19.875 204.181 23.5988 204.181 25.9464H204.181ZM191.513 29.9535C191.513 35.7414 195.682 40.3556 200.822 40.3556C205.315 40.3556 209.038 36.9152 209.969 32.2201L209.848 32.0582C209.119 34.2844 206.731 36.6318 203.534 36.6318C200.984 36.6318 199.122 34.7294 198.191 32.0582C198.96 32.1391 200.943 32.6653 202.967 32.6653C207.217 32.6653 209.484 29.6296 209.484 26.594C209.484 22.9108 206.367 19.6323 201.186 19.6323C195.236 19.6323 191.512 24.2465 191.512 29.9535H191.513Z" fill="#380020"/>
<path fill-rule="evenodd" clip-rule="evenodd" d="M60.3567 18.7894C59.762 17.2696 58.3579 15.5402 57.6108 14.667C56.6888 13.5895 54.989 12.3437 53.3762 11.4921C49.8861 9.64935 45.0879 9.29488 41.0634 10.7663C37.4125 12.1011 34.65 14.6859 33.0074 17.6164C31.2384 20.7729 30.3277 25.4449 31.6426 29.5201C33.7526 28.8688 35.5092 28.2953 36.1301 28.0925L36.1763 28.0773C36.8153 27.8687 37.4475 27.6602 38.0725 27.4523V24.6453C38.0725 24.2826 38.2482 23.9611 38.519 23.7611L42.0584 20.6955L45.6227 17.4681C46.0444 17.0865 46.6823 17.0949 47.0936 17.4712L50.6773 20.7162L50.678 20.7153L52.3872 22.1961C54.2858 21.423 57.3457 20.1518 60.3567 18.7896V18.7894ZM57.9915 14.1235C58.2401 14.4485 58.7291 14.9076 58.9145 15.3125C59.1683 15.2987 59.7463 15.16 60.512 14.9617V14.9619C61.1344 14.9281 63.2413 14.2452 65.3269 13.7673C67.2069 13.3716 68.9458 13.1493 69.6743 13.5184C70.5754 13.9751 69.6244 14.8441 69.3638 15.1066C67.1225 17.3646 55.1725 22.2592 51.7814 23.6234C46.898 25.5881 41.8705 27.3714 36.5154 29.1202C34.6278 29.7366 20.6776 34.3108 19.8736 32.34C19.6828 31.8722 20.1898 31.2648 21.071 30.6072V28.6915C20.0089 29.2682 18.9805 29.8545 17.984 30.4518C14.8113 32.3532 6.11109 38.0813 17.5096 36.8853C26.2606 35.967 38.612 31.9397 46.8635 28.9349C55.9729 25.6179 64.8874 21.8001 72.5494 17.314C75.6122 15.5205 84.6836 9.56898 73.3227 10.7687C70.5391 11.0627 67.9762 11.5754 65.359 12.1651L65.3054 12.1773L65.3044 12.1776L65.2478 12.1905L65.2432 12.1915L65.1859 12.2047C63.7658 12.5298 58.5374 13.7705 57.9918 14.1235H57.9915ZM27.1424 27.3393C28.269 26.8228 29.1203 26.4383 29.2929 26.2857C29.8764 26.0099 30.2749 25.81 30.3816 25.7156L30.4058 24.1928C30.0168 24.2756 28.5762 24.9391 27.1424 25.627V27.3391V27.3393ZM34.058 34.3434C34.7151 35.3124 36.2471 36.7479 36.9417 37.284C37.2983 37.5594 37.6749 37.8279 38.0724 38.0846V33.1049C36.755 33.5263 35.4113 33.9421 34.058 34.3433V34.3434ZM68.4873 4.61337L69.1361 6.18619L68.4039 7.79956L69.9959 7.10837L71.5911 7.7967L70.9423 6.22402L71.6745 4.6105L70.0825 5.3017L68.4873 4.61337ZM32.9556 8.69939L32.8508 10.3974L34.066 11.687L32.3361 11.5486L31.0496 12.7163L31.1542 11.0183L29.939 9.72874L31.669 9.86715L32.9556 8.69939ZM36.281 2.51971C33.4555 2.95615 34.158 7.21038 36.9249 6.75345C39.7333 6.28936 39.019 2.09674 36.281 2.51971ZM57.353 0.526348C52.5605 1.26669 53.7519 8.4826 58.4453 7.70729C63.2089 6.92023 61.9971 -0.191073 57.353 0.526348ZM44.0155 40.3407C45.5784 40.5851 47.1514 40.584 48.6971 40.345V29.4276C48.211 29.608 47.7239 29.787 47.2366 29.9645C46.2199 30.3346 45.1413 30.7204 44.0155 31.1138V40.3407ZM54.6404 38.1371C59.3799 35.1855 61.8646 30.0098 61.6848 24.1168C61.3561 24.2661 61.0262 24.4146 60.6954 24.5623C58.7093 25.4484 56.6868 26.3035 54.6404 27.1295V38.1371Z" fill="url(#paint0_linear_4341_5247)"/>
<defs>
<linearGradient id="paint0_linear_4341_5247" x1="47.27" y1="10.3989" x2="41.9222" y2="20.8869" gradientUnits="userSpaceOnUse">
<stop stop-color="#D4B67A"/>
<stop offset="1" stop-color="#E8DC90"/>
</linearGradient>
</defs>
</svg>
